HIERARCHY
ROOT joint_0
{
	OFFSET 0.000000 0.000000 0.000000
	CHANNELS 6 Xposition Yposition Zposition Zrotation Yrotation Xrotation 
	JOINT joint_1
	{
		OFFSET 11.612000 -0.419000 106.198000
		CHANNELS 3 Zrotation Yrotation Xrotation
		JOINT joint_2
		{
			OFFSET -1.708000 -1.022000 97.564090
			CHANNELS 3 Zrotation Yrotation Xrotation
			JOINT joint_3
			{
				OFFSET -4.121000 -1.538000 97.375000
				CHANNELS 3 Zrotation Yrotation Xrotation
				JOINT joint_4
				{
					OFFSET 5.442000 -2.123000 132.795900
					CHANNELS 3 Zrotation Yrotation Xrotation
					JOINT joint_5
					{
						OFFSET 21.935000 0.195000 82.975100
						CHANNELS 3 Zrotation Yrotation Xrotation
						End Site
						{
							OFFSET 0.000000 0.000000 0.000000
						}
					}
				}
				JOINT joint_6
				{
					OFFSET 4.262000 -30.048000 73.899900
					CHANNELS 3 Zrotation Yrotation Xrotation
					JOINT joint_7
					{
						OFFSET 9.731000 -136.810010 -21.963010
						CHANNELS 3 Zrotation Yrotation Xrotation
						JOINT joint_8
						{
							OFFSET 33.360000 -35.709000 -267.597900
							CHANNELS 3 Zrotation Yrotation Xrotation
							JOINT joint_9
							{
								OFFSET 36.156000 -29.759000 -240.558040
								CHANNELS 3 Zrotation Yrotation Xrotation
								End Site
								{
									OFFSET 0.000000 0.000000 0.000000
								}
							}
						}
					}
				}
				JOINT joint_10
				{
					OFFSET 2.027000 27.734000 74.914920
					CHANNELS 3 Zrotation Yrotation Xrotation
					JOINT joint_11
					{
						OFFSET -5.183000 136.784000 -23.604980
						CHANNELS 3 Zrotation Yrotation Xrotation
						JOINT joint_12
						{
							OFFSET 29.806000 37.229000 -267.809940
							CHANNELS 3 Zrotation Yrotation Xrotation
							JOINT joint_13
							{
								OFFSET 36.890000 46.524990 -237.772030
								CHANNELS 3 Zrotation Yrotation Xrotation
								End Site
								{
									OFFSET 0.000000 0.000000 0.000000
								}
							}
						}
					}
				}
			}
		}
	}
	JOINT joint_14
	{
		OFFSET -7.290000 -102.873990 -124.314940
		CHANNELS 3 Zrotation Yrotation Xrotation
		JOINT joint_15
		{
			OFFSET -15.466000 -19.909010 -438.533020
			CHANNELS 3 Zrotation Yrotation Xrotation
			JOINT joint_16
			{
				OFFSET -26.899000 -18.922000 -464.797000
				CHANNELS 3 Zrotation Yrotation Xrotation
				JOINT joint_17
				{
					OFFSET 179.329000 -12.011000 -84.174000
					CHANNELS 3 Zrotation Yrotation Xrotation
					End Site
					{
						OFFSET 0.000000 0.000000 0.000000
					}
				}
			}
		}
	}
	JOINT joint_18
	{
		OFFSET -6.225000 101.546000 -125.479980
		CHANNELS 3 Zrotation Yrotation Xrotation
		JOINT joint_19
		{
			OFFSET -13.973000 7.996000 -438.963010
			CHANNELS 3 Zrotation Yrotation Xrotation
			JOINT joint_20
			{
				OFFSET -44.294000 5.716000 -463.813970
				CHANNELS 3 Zrotation Yrotation Xrotation
				JOINT joint_21
				{
					OFFSET 178.505000 -4.689000 -85.139000
					CHANNELS 3 Zrotation Yrotation Xrotation
					End Site
					{
						OFFSET 0.000000 0.000000 0.000000
					}
				}
			}
		}
	}
}
MOTION
Frames: 6
Frame Time: 0.016667
260.178990 -81.643000 1137.839970 5.683870 5.687380 3.665890 -2.345780 12.545370 -1.878010 -1.612260 -2.394450 0.679470 -1.519350 2.097300 -0.103050 -0.682940 5.603490 2.015710 0.000000 0.000000 0.000000 -3.950570 -4.044690 1.359840 1.176500 -4.858240 2.025770 2.158390 -12.486220 3.800720 0.000000 0.000000 0.000000 -3.382060 -2.615360 0.962840 -0.173810 -2.068260 0.230850 0.618270 1.416030 2.052520 0.000000 0.000000 0.000000 -1.448070 -21.942680 -1.944540 -2.534240 3.104870 -1.607370 -2.556570 0.644660 -1.063170 0.000000 0.000000 0.000000 -0.199350 6.488470 1.470860 0.055160 9.515950 0.405270 0.258520 15.257830 0.509490 0.000000 0.000000 0.000000 
277.140010 -86.098000 1131.652950 5.518050 5.278950 4.136000 -2.330200 12.772900 -1.948120 -1.443670 -2.377530 0.628180 -1.331580 2.083150 -0.090760 -0.684060 6.064720 1.969760 0.000000 0.000000 0.000000 -3.937970 -4.098100 1.272030 1.186250 -4.906350 2.008790 1.999760 -11.191030 3.881860 0.000000 0.000000 0.000000 -3.218260 -2.609640 1.085800 -0.227000 -2.103640 0.346530 0.424110 0.848760 1.579170 0.000000 0.000000 0.000000 -1.490380 -21.891490 -1.974880 -2.819910 4.000480 -1.397270 -2.785490 0.348170 -1.181840 0.000000 0.000000 0.000000 -0.383480 6.802020 1.209640 -0.042620 11.456390 0.492070 0.189260 15.261700 0.474390 0.000000 0.000000 0.000000 
293.967010 -90.988000 1125.728030 5.410620 4.800300 4.413120 -2.266230 12.989380 -1.730740 -1.218640 -2.379550 0.552160 -1.079800 2.118700 -0.048140 -0.679640 6.477150 1.885840 0.000000 0.000000 0.000000 -3.824800 -4.098250 1.309240 1.141410 -4.900960 1.719840 1.839520 -10.010400 3.883940 0.000000 0.000000 0.000000 -3.099770 -2.675150 0.993530 -0.276780 -2.190030 0.550850 0.228970 0.248860 1.125920 0.000000 0.000000 0.000000 -1.591880 -21.889150 -1.760080 -3.229720 5.621540 -1.141400 -3.124420 0.194240 -1.340360 0.000000 0.000000 0.000000 -0.594240 6.614160 1.306830 -0.152360 14.469350 0.299470 0.078580 14.966020 0.413870 0.000000 0.000000 0.000000 
310.705990 -96.668000 1120.433960 5.612320 4.187070 4.363180 -2.226270 13.247040 -0.946780 -0.961240 -2.489430 0.388930 -0.768180 2.249560 0.039690 -0.653090 6.798260 1.707090 0.000000 0.000000 0.000000 -3.548750 -4.010230 1.592480 1.016940 -4.808050 1.026140 1.668780 -8.943940 3.738560 0.000000 0.000000 0.000000 -3.091260 -2.867590 0.479820 -0.302530 -2.353740 1.000000 0.055780 -0.299170 0.730970 0.000000 0.000000 0.000000 -1.880260 -21.638300 -1.042000 -3.869140 7.361880 -0.991310 -3.764570 1.141020 -1.557340 0.000000 0.000000 0.000000 -0.948360 5.837900 2.116940 -0.380060 18.844780 -0.459520 -0.204620 14.561930 0.277260 0.000000 0.000000 0.000000 
327.308990 -102.781000 1115.402950 6.033900 3.455580 4.040060 -2.226530 13.559740 0.334500 -0.683160 -2.643020 0.090800 -0.407170 2.413020 0.165950 -0.611600 7.075290 1.468040 0.000000 0.000000 0.000000 -3.172090 -3.861820 1.989890 0.845760 -4.653290 0.052480 1.510020 -7.986050 3.554550 0.000000 0.000000 0.000000 -3.111250 -3.125180 -0.243190 -0.326900 -2.565410 1.521220 -0.121860 -0.873780 0.332130 0.000000 0.000000 0.000000 -2.305510 -21.326550 -0.006630 -4.715120 9.677320 -0.842880 -4.653660 2.533650 -1.854690 0.000000 0.000000 0.000000 -1.433440 4.659080 3.400100 -0.741150 24.073300 -1.505190 -0.610150 14.445420 0.092400 0.000000 0.000000 0.000000 
343.013000 -108.554000 1110.805050 6.330620 2.774320 3.592160 -2.200210 13.935450 1.686510 -0.394110 -2.702550 -0.226310 -0.040330 2.511350 0.310690 -0.578470 7.290320 1.262080 0.000000 0.000000 0.000000 -2.828840 -3.785640 2.251700 0.706660 -4.568410 -0.863670 1.372340 -7.191750 3.327910 0.000000 0.000000 0.000000 -3.048190 -3.374560 -0.757750 -0.402350 -2.814480 1.673780 -0.300850 -1.549170 0.048340 0.000000 0.000000 0.000000 -2.580180 -21.461110 0.926140 -5.440880 12.833740 -0.671940 -5.405450 2.726090 -2.165560 0.000000 0.000000 0.000000 -1.854110 3.049010 4.596170 -1.104060 29.584190 -2.250660 -0.892710 14.625550 -0.046510 0.000000 0.000000 0.000000 
